<svg xmlns="http://www.w3.org/2000/svg" viewBox="0 0 64 64">
  <!-- Background -->
  <rect width="64" height="64" fill="#1a202c"/>
  
  <!-- Maze walls -->
  <g fill="#2d3748" stroke="#2d3748" stroke-width="1">
    <!-- Outer border -->
    <rect x="4" y="4" width="56" height="56" fill="none" stroke="#4a5568" stroke-width="2"/>
    
    <!-- Horizontal walls -->
    <rect x="8" y="12" width="8" height="2"/>
    <rect x="20" y="12" width="12" height="2"/>
    <rect x="36" y="12" width="8" height="2"/>
    <rect x="48" y="12" width="8" height="2"/>
    
    <rect x="8" y="20" width="16" height="2"/>
    <rect x="28" y="20" width="8" height="2"/>
    <rect x="40" y="20" width="16" height="2"/>
    
    <rect x="8" y="28" width="8" height="2"/>
    <rect x="20" y="28" width="20" height="2"/>
    <rect x="44" y="28" width="12" height="2"/>
    
    <rect x="8" y="36" width="20" height="2"/>
    <rect x="32" y="36" width="8" height="2"/>
    <rect x="44" y="36" width="12" height="2"/>
    
    <rect x="8" y="44" width="8" height="2"/>
    <rect x="20" y="44" width="16" height="2"/>
    <rect x="40" y="44" width="8" height="2"/>
    <rect x="52" y="44" width="4" height="2"/>
    
    <rect x="8" y="52" width="16" height="2"/>
    <rect x="28" y="52" width="12" height="2"/>
    <rect x="44" y="52" width="12" height="2"/>
    
    <!-- Vertical walls -->
    <rect x="12" y="8" width="2" height="8"/>
    <rect x="12" y="20" width="2" height="8"/>
    <rect x="12" y="32" width="2" height="8"/>
    <rect x="12" y="48" width="2" height="8"/>
    
    <rect x="20" y="8" width="2" height="8"/>
    <rect x="20" y="20" width="2" height="8"/>
    <rect x="20" y="32" width="2" height="8"/>
    <rect x="20" y="44" width="2" height="8"/>
    
    <rect x="28" y="8" width="2" height="8"/>
    <rect x="28" y="20" width="2" height="8"/>
    <rect x="28" y="32" width="2" height="8"/>
    <rect x="28" y="44" width="2" height="8"/>
    
    <rect x="36" y="8" width="2" height="8"/>
    <rect x="36" y="20" width="2" height="8"/>
    <rect x="36" y="28" width="2" height="8"/>
    <rect x="36" y="40" width="2" height="8"/>
    
    <rect x="44" y="8" width="2" height="8"/>
    <rect x="44" y="20" width="2" height="8"/>
    <rect x="44" y="32" width="2" height="8"/>
    <rect x="44" y="44" width="2" height="8"/>
    
    <rect x="52" y="8" width="2" height="8"/>
    <rect x="52" y="20" width="2" height="8"/>
    <rect x="52" y="28" width="2" height="8"/>
    <rect x="52" y="40" width="2" height="8"/>
  </g>
  
  <!-- Path through maze (highlighted) -->
  <path d="M 10 10 L 10 18 L 18 18 L 18 26 L 26 26 L 26 34 L 34 34 L 34 42 L 42 42 L 42 50 L 50 50 L 50 54" 
        stroke="#48bb78" 
        stroke-width="2.5" 
        fill="none" 
        stroke-linecap="round" 
        stroke-linejoin="round"/>
  
  <!-- Start point -->
  <circle cx="10" cy="10" r="3" fill="#48bb78"/>
  
  <!-- End point -->
  <circle cx="50" cy="54" r="3" fill="#f56565"/>
</svg>
