<svg xmlns="http://www.w3.org/2000/svg" viewBox="0 0 64 64">
  <!-- Background -->
  <rect width="64" height="64" fill="#2d3748"/>
  
  <!-- Grid lines -->
  <g stroke="#4a5568" stroke-width="0.5" fill="none">
    <line x1="8" y1="8" x2="56" y2="8"/>
    <line x1="8" y1="16" x2="56" y2="16"/>
    <line x1="8" y1="24" x2="56" y2="24"/>
    <line x1="8" y1="32" x2="56" y2="32"/>
    <line x1="8" y1="40" x2="56" y2="40"/>
    <line x1="8" y1="48" x2="56" y2="48"/>
    <line x1="8" y1="56" x2="56" y2="56"/>
    
    <line x1="8" y1="8" x2="8" y2="56"/>
    <line x1="16" y1="8" x2="16" y2="56"/>
    <line x1="24" y1="8" x2="24" y2="56"/>
    <line x1="32" y1="8" x2="32" y2="56"/>
    <line x1="40" y1="8" x2="40" y2="56"/>
    <line x1="48" y1="8" x2="48" y2="56"/>
    <line x1="56" y1="8" x2="56" y2="56"/>
  </g>
  
  <!-- Path (diagonal from top-left to bottom-right) -->
  <circle cx="12" cy="12" r="3" fill="#48bb78"/>
  <circle cx="52" cy="52" r="3" fill="#f56565"/>
  <path d="M 12 12 L 20 20 L 28 28 L 36 36 L 44 44 L 52 52" 
        stroke="#63b3ed" 
        stroke-width="2" 
        fill="none" 
        stroke-linecap="round" 
        stroke-linejoin="round"/>
</svg>

